<svg width="179" height="54" viewBox="0 0 179 54" fill="none" xmlns="http://www.w3.org/2000/svg">
<path d="M40.7298 40.9582C44.8206 36.8997 47.3069 31.4954 47.7292 25.7437C48.1515 19.992 46.4813 14.2816 43.0271 9.66745C39.573 5.05331 34.5684 1.84727 28.9378 0.641631C23.3073 -0.56401 17.4314 0.312224 12.3956 3.10845C7.35978 5.90467 3.50446 10.4319 1.54187 15.8538C-0.420724 21.2757 -0.35796 27.2258 1.71857 32.6049C3.79509 37.984 7.74505 42.4285 12.8387 45.1174C17.9323 47.8062 23.8255 48.5577 29.4293 47.233L27.2207 37.8588C23.8772 38.6492 20.3612 38.2008 17.3221 36.5965C14.283 34.9923 11.9263 32.3405 10.6874 29.1311C9.44843 25.9217 9.41098 22.3716 10.5819 19.1367C11.7529 15.9018 14.0531 13.2007 17.0577 11.5323C20.0622 9.86399 23.5681 9.3412 26.9275 10.0605C30.2869 10.7799 33.2729 12.6927 35.3337 15.4457C37.3946 18.1987 38.3911 21.6057 38.1391 25.0374C37.8872 28.4691 36.4038 31.6936 33.963 34.115L40.7298 40.9582Z" fill="#1E4CA1"/>
<path d="M31.4868 46.2023L29.9795 34.9184L39.3614 40.5328L41.167 50.4573L31.4868 46.2023Z" fill="#82C971"/>
<path d="M67.4704 16.5178H71.4885L69.0842 31.0091C68.8242 32.5976 68.2177 33.9948 67.2646 35.2006C66.3187 36.4064 65.1129 37.3486 63.6472 38.0274C62.1815 38.6989 60.5497 39.0346 58.7518 39.0346C56.9395 39.0346 55.416 38.6989 54.1813 38.0274C52.9466 37.3486 52.0549 36.4064 51.5061 35.2006C50.9646 33.9948 50.8238 32.5976 51.0837 31.0091L53.4881 16.5178H57.5063L55.156 30.6734C55.0044 31.5976 55.073 32.4207 55.3618 33.1428C55.6578 33.8576 56.1416 34.4208 56.8131 34.8323C57.4918 35.2439 58.3402 35.4497 59.3583 35.4497C60.3764 35.4497 61.2934 35.2439 62.1093 34.8323C62.9252 34.4208 63.593 33.8576 64.1129 33.1428C64.6328 32.4207 64.9685 31.5976 65.1202 30.6734L67.4704 16.5178ZM72.1736 38.6989L75.856 16.5178H90.2823L89.7191 19.8861H79.3109L78.3145 25.9079H87.9754L87.4122 29.2762H77.7513L76.7549 35.3305H87.2498L86.6866 38.6989H72.1736ZM105.396 22.7237C105.425 21.7201 105.118 20.9511 104.476 20.4168C103.84 19.8825 102.927 19.6154 101.736 19.6154C100.898 19.6154 100.158 19.7417 99.5154 19.9944C98.88 20.2399 98.3674 20.5829 97.9775 21.0233C97.5876 21.4566 97.3457 21.9512 97.2518 22.5071C97.1724 22.962 97.2121 23.3591 97.3709 23.6985C97.5298 24.0378 97.7717 24.3267 98.0966 24.5649C98.4287 24.8032 98.8042 25.0018 99.223 25.1606C99.649 25.3195 100.082 25.453 100.523 25.5613L102.515 26.0812C103.31 26.2762 104.068 26.5397 104.79 26.8718C105.512 27.1968 106.137 27.6155 106.664 28.1282C107.198 28.6336 107.588 29.2437 107.833 29.9586C108.079 30.6734 108.118 31.511 107.952 32.4713C107.736 33.7709 107.212 34.9154 106.382 35.9046C105.559 36.8865 104.476 37.6555 103.133 38.2115C101.797 38.7602 100.241 39.0346 98.4648 39.0346C96.7464 39.0346 95.2951 38.7674 94.1109 38.2331C92.9268 37.6916 92.0603 36.9082 91.5116 35.8829C90.9701 34.8576 90.7968 33.6121 90.9917 32.1463H94.9449C94.8655 32.9189 94.9918 33.5615 95.324 34.0742C95.6633 34.5868 96.1507 34.9695 96.7861 35.2222C97.4215 35.4749 98.158 35.6013 98.9955 35.6013C99.8692 35.6013 100.66 35.4713 101.367 35.2114C102.075 34.9442 102.653 34.576 103.1 34.1067C103.555 33.6301 103.833 33.0742 103.934 32.4388C104.035 31.8684 103.952 31.3918 103.685 31.0091C103.418 30.6265 103.003 30.3088 102.44 30.056C101.884 29.7961 101.219 29.5651 100.447 29.3629L98.0424 28.713C96.3023 28.2365 94.981 27.5217 94.0784 26.5686C93.1831 25.6155 92.8654 24.3447 93.1254 22.7562C93.342 21.4421 93.8871 20.2977 94.7608 19.3229C95.6344 18.341 96.7283 17.5792 98.0424 17.0377C99.3566 16.4889 100.793 16.2145 102.353 16.2145C103.927 16.2145 105.259 16.4889 106.35 17.0377C107.447 17.5864 108.248 18.3518 108.754 19.3338C109.267 20.3085 109.436 21.4385 109.263 22.7237H105.396ZM112.65 19.8861L113.213 16.5178H130.911L130.347 19.8861H123.492L120.372 38.6989H116.387L119.506 19.8861H112.65ZM130.64 38.6989L134.322 16.5178H148.749L148.185 19.8861H137.777L136.781 25.9079H146.442L145.878 29.2762H136.218L135.221 35.3305H145.716L145.153 38.6989H130.64ZM149.166 38.6989L152.848 16.5178H161.166C162.87 16.5178 164.253 16.8138 165.314 17.4059C166.375 17.998 167.115 18.8283 167.534 19.8969C167.953 20.9583 168.043 22.1966 167.805 23.6118C167.574 25.027 167.068 26.2581 166.289 27.3051C165.516 28.3448 164.494 29.1499 163.224 29.7203C161.96 30.2907 160.476 30.5759 158.772 30.5759H152.848L153.411 27.2401H158.805C159.801 27.2401 160.639 27.1029 161.317 26.8285C161.996 26.5469 162.53 26.139 162.92 25.6047C163.317 25.0631 163.581 24.3989 163.711 23.6118C163.834 22.8248 163.787 22.1533 163.57 21.5974C163.361 21.0342 162.96 20.6082 162.368 20.3193C161.783 20.0233 160.993 19.8753 159.996 19.8753H156.314L153.184 38.6989H149.166ZM162.292 28.6481L166.115 38.6989H161.632L157.906 28.6481H162.292Z" fill="#1E4CA1"/>
</svg>
